<?xml version="1.0" encoding="utf-8"?>
<!-- Generator: Adobe Illustrator 27.0.1, SVG Export Plug-In . SVG Version: 6.00 Build 0)  -->
<svg version="1.1" xmlns="http://www.w3.org/2000/svg" xmlns:xlink="http://www.w3.org/1999/xlink" x="0px" y="0px"
	 viewBox="0 0 673 208.5" style="enable-background:new 0 0 673 208.5;" xml:space="preserve">
<style type="text/css">
	.st0{fill:#8C0000;}
	.st1{font-family:'Condor-BlackItalic';}
	.st2{font-size:91.7761px;}
	.st3{letter-spacing:8;}
	.st4{display:none;fill:none;stroke:#000000;stroke-miterlimit:10;}
</style>
<g id="Layer_1">
	<g>
		<g>
			<path class="st0" d="M159.64,165.89c-3.41,6.77-11.23,13.24-11.23,13.24s12.5-1.17,23.1-10.28c10.6-9.11,10.49-16.74,17.91-18.86
				C189.41,150,167.06,151.16,159.64,165.89z"/>
		</g>
		<g>
			<path class="st0" d="M190.15,120.54c0,0,4.77,15.79-12.93,27.65c0,0,19.6-3.6,22.78-28.18s-4.13-18.97,6.99-37.08
				c0,0-12.41,8.37-12.3,22.36s-2.01,22.99-2.01,22.99S192.8,125.1,190.15,120.54z"/>
		</g>
		<g>
			<path class="st0" d="M54.11,73.5c-4.34,6.15-3.28,11.76-3.28,11.76c-1.7-0.85-2.33-3.6-2.33-3.6
				c-3.71,11.44,0.64,20.02,0.64,20.02c-1.59-0.53-2.75-3.39-2.75-3.39c1.1,24.96,14.13,39.2,34.65,46.72
				c-1.06-2.12,0.64-6.04,0.64-6.04c3.05,17.34,11.87,29.84,25.32,38.46c-16-17.27,8.37-36.55-1.27-49.06s-4.24-21.08-3.18-25.85
				c1.06-4.77,1.7-10.7-4.34-16.53c-6.04-5.83-4.87-12.29-4.87-12.29c-0.42-3.5-5.72-2.75-5.72-2.75
				c8.05-6.57,13.46,3.39,13.46,3.39s10.7,0,13.14,11.76c2.44,11.76,8.79,9.01,8.79,9.01c-6.25,5.83-11.44,3.6-11.44,3.6
				c-8.79,8.79-7.2,17.69-2.44,18.65c4.77,0.95,9.01-2.33,11.02-4.45c2.01-2.12,15.47-16.32,26.7-25.64
				c11.23-9.32,4.03-28.29,4.03-28.29c4.87,2.54,5.51,5.83,5.51,5.83C167.16,9.4,117.47,0.5,117.47,0.5s43.86-2.12,53.4,45.88
				c0,0-6.15-29.67,3.6-35.6c0,0-4.77,8.37,2.54,20.87s7.2,18.01,7.2,21.4c0,0,2.97-7.95,12.61-12.61c0,0-7.2,3.92-7.73,16.95
				s-5.51,28.4-7.2,32.1c0,0,5.93-9.22,7.63-12.4s6.78-9.75,14.94-9.75c0,0-7.84,0.85-11.34,19.07s-24.9,32.42-33.16,35.71
				c0,0-0.95,5.83-6.46,9.96c0,0,21.3,2.22,32.74-25.64c4.47,33.98-16.31,51.1-55.62,55.84l-12.29,11.12c0,0,2.75,8.9-1.27,13.99
				c-4.03,5.09-8.26,5.3-9.11,11.12c0,0,11.12-3.6,14.52-14.83c0,0,2.44-10.07,8.9-14.41c6.46-4.34,18.33-0.42,23.42-8.9
				c0,0,0.32,10.49-13.14,24.16s-33.59,10.95-37.93,24.01c-1.24-3.29-3.17-5.61-5.62-7.17c-8.09-5.54-22.12-6.48-32.31-16.84
				c-13.46-13.67-13.14-24.16-13.14-24.16c5.09,8.48,16.95,4.56,23.42,8.9s8.9,14.41,8.9,14.41c3.39,11.23,14.52,14.83,14.52,14.83
				c-0.85-5.83-5.09-6.04-9.11-11.12c-4.03-5.09-1.27-13.99-1.27-13.99l-12.29-11.12c-39.32-4.74-60.09-21.86-55.62-55.84
				c11.44,27.87,32.74,25.64,32.74,25.64c-5.51-4.13-6.46-9.96-6.46-9.96c-8.26-3.28-29.67-17.48-33.16-35.71S2.94,67.36,2.94,67.36
				c8.16,0,13.24,6.57,14.94,9.75c1.7,3.18,7.63,12.4,7.63,12.4c-1.7-3.71-6.67-19.07-7.2-32.1c-0.53-13.03-7.73-16.95-7.73-16.95
				c9.64,4.66,12.61,12.61,12.61,12.61c0-3.39-0.11-8.9,7.2-21.4s2.54-20.87,2.54-20.87c9.75,5.93,3.6,35.6,3.6,35.6
				c9.54-48,53.4-45.88,53.4-45.88S40.23,9.4,51.04,64.81c0,0,0.64-3.28,5.51-5.83c0,0-3.82,13.88,3.6,23.95s17.38,7.84,26.17,28.4
				c0,0-6.15-11.65-15.26-16.32C60.39,89.49,55.26,82.15,54.11,73.5z"/>
		</g>
		<g>
			<path class="st0" d="M47.75,165.89c3.41,6.77,11.23,13.24,11.23,13.24s-12.5-1.17-23.1-10.28c-10.6-9.11-10.49-16.74-17.91-18.86
				C17.98,150,40.34,151.16,47.75,165.89z"/>
		</g>
		<g>
			<path class="st0" d="M17.24,120.54c0,0-4.77,15.79,12.93,27.65c0,0-19.6-3.6-22.78-28.18s4.13-18.97-6.99-37.08
				c0,0,12.41,8.37,12.3,22.36s2.01,22.99,2.01,22.99S14.59,125.1,17.24,120.54z"/>
		</g>
		<g>
			<path class="st0" d="M82.19,115.03c0,0-1.38-9.85-14.52-15.68S54.43,80.39,54.43,80.39s-3.18,9.64,0.85,16.95
				c0,0-4.98-3.6-5.3-8.37c0,0-1.38,9.85,6.46,22.89c0,0-4.85-3.21-6.56-8.02c0,0,0.31,11.3,14.93,24.54c0,0-5.93-1.17-9.11-6.46
				c0,0,6.57,14.73,22.25,17.06c0,0-4.56-1.91-5.51-6.57c0,0,2.01,3.39,7.31,2.86c0,0-5.62-5.62-5.72-14.94c0,0,1.38,3.07,6.78,3.07
				c0,0-5.83-3.71-6.25-14.3C77.71,110.03,80.23,112.05,82.19,115.03z"/>
		</g>
		<g>
			<path class="st0" d="M97.02,140.14c4.34-7.84-1.8-14.83-1.8-14.83c1.06,5.09-2.54,8.69-2.54,8.69s-3.6-5.83,2.12-16.95
				s5.19-18.22,5.19-18.22s-0.21,4.77-2.97,7.52s-6.15,6.99-6.67,9.96c0,0,0.32-4.77,3.39-9.32c-13.35,17.26-16.31,34.17,2.54,50.33
				c8.04-8.77,10.59-18.89,4.34-31.15C103.07,133.28,101.21,137.5,97.02,140.14z"/>
		</g>
	</g>
</g>
<g id="Layer_2">
	<text transform="matrix(1 0 0 1 221.8398 100.2539)"><tspan x="0" y="0" class="st1 st2">PHOENIX</tspan><tspan x="0" y="75" class="st1 st2 st3">FITNESS</tspan></text>
	<rect x="237" y="-4.5" class="st4" width="464" height="195"/>
</g>
</svg>
